<?xml version="1.0" encoding="utf-8"?>
<!-- Generator: Adobe Illustrator 15.0.0, SVG Export Plug-In . SVG Version: 6.00 Build 0)  -->
<!DOCTYPE svg PUBLIC "-//W3C//DTD SVG 1.1//EN" "http://www.w3.org/Graphics/SVG/1.1/DTD/svg11.dtd">
<svg version="1.1" id="Layer_1" xmlns="http://www.w3.org/2000/svg" xmlns:xlink="http://www.w3.org/1999/xlink" x="0px" y="0px"
	 width="13px" height="13px" viewBox="0 0 13 13" enable-background="new 0 0 13 13" xml:space="preserve">
<path fill="#FFFFFF" d="M11.532,0.236H1.337c-0.594,0-1.089,0.495-1.089,1.089v3.031h4.12c0.618-0.445,1.274-0.829,2.066-0.829
	c0.767,0,1.46,0.384,2.066,0.829h4.12V1.325C12.621,0.731,12.126,0.236,11.532,0.236z M11.792,3.107
	c0,0.235-0.186,0.433-0.421,0.433H9.75c-0.234,0-0.433-0.198-0.433-0.433V1.486c0-0.235,0.198-0.421,0.433-0.421h1.621
	c0.235,0,0.421,0.186,0.421,0.421V3.107z M8.501,6.831c0,1.139-0.929,2.066-2.066,2.066S4.368,7.97,4.368,6.831
	c0-1.138,0.929-2.054,2.066-2.054S8.501,5.693,8.501,6.831z M9.59,6.015c0.074,0.248,0.099,0.507,0.099,0.767
	c0,1.806-1.46,3.266-3.254,3.266S3.18,8.588,3.18,6.782c0-0.26,0.025-0.52,0.1-0.767H0.248v5.506c0,0.594,0.495,1.089,1.089,1.089
	h10.195c0.594,0,1.089-0.495,1.089-1.089V6.015H9.59z"/>
</svg>
