<?xml version="1.0" encoding="utf-8"?>
<!-- Generator: Adobe Illustrator 15.0.0, SVG Export Plug-In . SVG Version: 6.00 Build 0)  -->
<!DOCTYPE svg PUBLIC "-//W3C//DTD SVG 1.1//EN" "http://www.w3.org/Graphics/SVG/1.1/DTD/svg11.dtd">
<svg version="1.1" id="Layer_1" xmlns="http://www.w3.org/2000/svg" xmlns:xlink="http://www.w3.org/1999/xlink" x="0px" y="0px"
	 width="15px" height="17px" viewBox="0 0 15 17" enable-background="new 0 0 15 17" xml:space="preserve">
<path fill="#FFFFFF" d="M9.521,11.899c0-0.229-0.081-0.409-0.343-0.409c-0.147,0-0.278,0.064-0.36,0.164v2.583
	c0.114,0.114,0.229,0.18,0.409,0.18c0.229,0,0.294-0.131,0.294-0.343V11.899z M12.709,11.948c0-0.246-0.098-0.441-0.375-0.441
	c-0.279,0-0.377,0.179-0.377,0.441v0.458h0.752V11.948z M3.65,10.23v4.791H2.686V10.23H1.688V9.413h2.977v0.817H3.65z M6.25,15.021
	v-0.457c-0.245,0.262-0.638,0.523-0.997,0.523c-0.425,0-0.605-0.344-0.605-0.72v-3.483h0.866v3.173c0,0.147,0.05,0.277,0.213,0.277
	c0.213,0,0.393-0.163,0.523-0.311v-3.14h0.851v4.137H6.25z M10.404,14.155c0,0.523-0.213,0.916-0.785,0.916
	c-0.344,0-0.572-0.131-0.802-0.376v0.326H7.951V9.413h0.866v1.799c0.196-0.213,0.458-0.376,0.753-0.376
	c0.621,0,0.834,0.49,0.834,1.03V14.155z M13.576,13.534c0.016,0.964-0.18,1.603-1.275,1.603c-0.785,0-1.243-0.507-1.243-1.292
	v-1.848c0-0.769,0.589-1.227,1.308-1.227c0.77,0,1.211,0.474,1.211,1.227v1.047h-1.619v0.784c0,0.278,0,0.572,0.359,0.572
	c0.328,0,0.393-0.229,0.393-0.507c0-0.114,0-0.245,0-0.359H13.576z M7.754,6.012c0,0.294-0.18,0.425-0.457,0.425
	c-0.262,0-0.426-0.164-0.426-0.425V3.216c0-0.229,0.213-0.376,0.426-0.376s0.457,0.147,0.457,0.376V6.012z M14.77,12.357
	c0-0.785,0-1.587-0.098-2.372c-0.18-1.21-0.883-1.7-2.061-1.815c-0.785-0.082-1.603-0.082-2.404-0.082H5.139
	c-0.802,0-1.604,0-2.404,0.082C1.574,8.285,0.871,8.775,0.69,9.985c-0.114,0.785-0.099,1.587-0.099,2.372
	c0,0.784-0.016,1.586,0.099,2.37c0.181,1.21,0.884,1.7,2.044,1.815c0.801,0.082,1.603,0.082,2.404,0.082h5.085
	c0.785,0,1.603,0,2.388-0.082c1.178-0.115,1.881-0.605,2.061-1.815C14.77,13.943,14.77,13.142,14.77,12.357z M4.599,0.272
	L3.863,3.036H3.781L3.029,0.272H1.803l0.948,2.796c0.229,0.67,0.491,1.03,0.491,1.783c0,0.784,0,1.569,0,2.354h1.193
	c0-0.867-0.017-1.733-0.017-2.601c0-0.572,0.311-1.111,0.49-1.635l0.899-2.698H4.599z M8.85,3.282c0-0.834-0.719-1.325-1.504-1.325
	c-0.817,0-1.586,0.409-1.586,1.308v2.649c0,0.899,0.67,1.422,1.537,1.422c0.898,0,1.553-0.458,1.553-1.406V3.282z M12.791,2.088
	h-1.062v3.875c-0.147,0.147-0.426,0.392-0.639,0.392c-0.229,0-0.277-0.147-0.277-0.343V2.088h-1.08v4.268
	c0,0.491,0.197,0.916,0.753,0.916c0.491,0,0.915-0.311,1.243-0.638v0.572h1.062V2.088z"/>
</svg>
