<svg xmlns="http://www.w3.org/2000/svg" width="17" height="14" viewBox="0 0 17 14"><path d="M15.26 3.503c.022.155.022.31.022.462 0 1.388-.331 2.775-.881 4.053-1.63 3.7-5.021 5.88-9.051 5.88-1.894 0-3.766-.552-5.351-1.565.264.022.55.045.814.045 1.585 0 3.105-.528 4.338-1.498-1.476-.022-2.797-1.014-3.258-2.423.22.043.439.067.66.067.309 0 .617-.045.925-.132-1.628-.33-2.84-1.761-2.796-3.412v-.044c.485.264 1.014.418 1.586.44-.991-.661-1.564-1.74-1.564-2.906 0-.618.155-1.234.462-1.762 1.784 2.18 4.404 3.502 7.201 3.655-.066-.264-.088-.529-.088-.793 0-1.937 1.564-3.5 3.502-3.5.946 0 1.872.395 2.532 1.1.793-.155 1.541-.44 2.224-.836-.265.792-.814 1.498-1.542 1.915.705-.066 1.366-.264 2.005-.55-.463.704-1.057 1.32-1.74 1.804z"/></svg>