<svg xmlns="http://www.w3.org/2000/svg" width="9.532" height="17.174" viewBox="0 0 9.532 17.174"><path d="M4.767 6.319c1.008 0 1.785-.861 1.785-1.848 0-.988-.777-1.848-1.785-1.848s-1.786.86-1.786 1.849c0 .986.778 1.847 1.786 1.847zm0-6.319c2.457 0 4.305 2.077 4.305 4.472 0 2.393-1.848 4.472-4.305 4.472s-4.305-2.08-4.305-4.472c0-2.395 1.848-4.472 4.305-4.472zm3.505 9.007c.715 0 1.26.63 1.26 1.322 0 1.302-2.078 1.847-3.086 2.058l2.457 2.541c.23.251.377.587.377.924 0 .692-.546 1.322-1.26 1.322-.336 0-.672-.126-.902-.378l-2.351-2.436-2.352 2.436c-.231.252-.566.378-.902.378-.715 0-1.26-.608-1.26-1.322 0-.337.146-.673.377-.924l2.457-2.541c-1.008-.211-3.087-.714-3.087-2.037 0-.692.546-1.322 1.261-1.322.209 0 .398.063.588.147.965.462 1.805.756 2.896.756 1.029 0 2.017-.273 2.939-.756.19-.106.379-.168.588-.168z"/></svg>