<svg xmlns="http://www.w3.org/2000/svg" width="15.205" height="15.69" viewBox="0 0 15.205 15.69"><path d="M9.896 0h-3.729c-1.662 0-2.813.366-3.849 1.223-.814.705-1.3 1.73-1.3 2.741 0 1.558 1.184 3.213 3.378 3.213.211 0 .444-.02.65-.041l-.029.074c-.088.212-.172.413-.172.725 0 .607.292.982.574 1.345l.036.045-.063.005c-.907.062-2.592.177-3.825.939-1.455.865-1.567 2.128-1.567 2.494 0 1.457 1.353 2.928 4.376 2.928 3.515 0 5.354-1.945 5.354-3.867 0-1.422-.83-2.124-1.712-2.868l-.744-.58c-.229-.191-.516-.429-.516-.87 0-.433.286-.719.538-.971l.026-.026c.804-.635 1.714-1.354 1.714-2.912 0-1.564-.975-2.374-1.443-2.762h1.238l.043-.013 1.065-.673.035-.09-.078-.059zm-4.522 14.833c-2.143 0-3.582-1.004-3.582-2.498 0-.976.588-1.686 1.748-2.107.929-.312 2.127-.328 2.139-.328.203 0 .306 0 .468.021 1.499 1.069 2.22 1.632 2.22 2.702-.001 1.362-1.147 2.21-2.993 2.21zm-.02-8.229c-1.798 0-2.545-2.371-2.545-3.641 0-.645.146-1.142.448-1.515.326-.411.886-.676 1.425-.676 1.651 0 2.564 2.227 2.564 3.765 0 .244 0 .982-.509 1.494-.341.344-.898.573-1.383.573zm9.771.723h-1.966v-1.965c0-.043-.036-.081-.081-.081h-.846c-.044 0-.08.038-.08.081v1.965h-1.956c-.044 0-.08.037-.08.081v.861c0 .044.036.081.08.081h1.956v1.978c0 .044.036.08.08.08h.846c.045 0 .081-.036.081-.08v-1.978h1.966c.044 0 .08-.038.08-.083v-.859c0-.044-.036-.081-.08-.081z"/></svg>